<svg width="22" height="19" viewBox="0 0 22 19" fill="none" xmlns="http://www.w3.org/2000/svg">
<path d="M15.794 0.750017C17.118 0.750017 18.362 1.26602 19.298 2.20102C20.2262 3.13093 20.7475 4.39113 20.7475 5.70502C20.7475 7.0189 20.2262 8.2791 19.298 9.20902L11 17.508L2.70102 9.20902C1.77313 8.27914 1.25201 7.01915 1.25201 5.70552C1.25201 4.39188 1.77313 3.13189 2.70102 2.20202C3.16005 1.74032 3.7061 1.37425 4.30757 1.12501C4.90903 0.875777 5.55396 0.748319 6.20502 0.750017C7.52902 0.750017 8.77302 1.26602 9.70902 2.20102L10.469 2.96102L11 3.49202L11.53 2.96102L12.29 2.20102C12.7492 1.73963 13.2953 1.37384 13.8968 1.12478C14.4982 0.87573 15.1431 0.748353 15.794 0.750017Z" stroke="#111111" stroke-width="1.5"/>
</svg>
