<svg width="25" height="25" viewBox="0 0 25 25" fill="none" xmlns="http://www.w3.org/2000/svg">
<g id="Img">
<path id="Vector" fill-rule="evenodd" clip-rule="evenodd" d="M13.3624 4.34666C13.3504 4.30766 13.3504 4.30766 13.3504 4.27466C13.3393 4.0189 13.4302 3.76918 13.603 3.58036C13.7759 3.39155 14.0167 3.27908 14.2724 3.26766C14.5279 3.2576 14.777 3.34882 14.9656 3.52148C15.1542 3.69415 15.267 3.93428 15.2794 4.18966C15.2911 4.44473 15.2011 4.69402 15.0292 4.88281C14.8573 5.0716 14.6175 5.18448 14.3624 5.19666C14.3354 5.20066 14.3004 5.19666 14.2614 5.19666C14.2454 5.20066 14.2214 5.20066 14.2054 5.21866C14.1494 5.30266 14.3454 5.29166 14.2004 5.65866C14.2004 5.65866 14.2004 5.69666 14.1884 5.73566C14.1764 5.87566 14.1084 6.29766 14.0924 6.52866C14.1214 6.56866 14.1324 6.57866 14.1214 6.65866C14.0995 6.83792 14.0694 7.0161 14.0314 7.19266C13.9914 7.33266 13.9354 7.36666 13.8844 7.39466C13.8114 7.69266 13.7894 7.93966 13.6034 8.29966C13.5814 8.57566 13.5584 8.64966 13.4974 8.78366C13.4804 9.18366 13.5074 9.24366 13.2164 9.88466C13.1364 10.1847 13.1994 10.3917 13.2664 10.7057C13.3344 11.0267 13.5424 11.1667 13.5644 11.4987C13.6144 12.2697 13.5814 12.8037 13.4014 13.4057L13.5364 13.7537C13.7164 13.8377 14.1544 14.0797 13.8964 14.4287C14.2394 14.6187 14.7614 14.8227 15.1764 15.2097C15.3524 15.3567 15.5264 15.5247 15.6894 15.7097C16.0054 15.7667 15.9654 15.7897 16.1954 15.9407C16.8704 16.3787 17.9444 17.2447 18.5684 17.8467C18.6804 17.9137 18.7154 17.9587 18.8044 18.0097C18.8144 18.0327 18.8214 18.0437 18.8144 18.0497C18.7884 18.1217 18.7884 18.1217 18.7544 18.1897C18.7934 18.2297 18.8494 18.2627 18.8884 18.2967C18.9284 18.3017 18.9284 18.2907 18.9844 18.2797C19.0634 18.3527 19.1644 18.4147 19.1984 18.4147C19.3044 18.3927 19.2824 18.4097 19.3834 18.3147C19.4124 18.2797 19.4674 18.3147 19.4674 18.3147C19.5074 18.2747 19.5804 18.1957 19.6814 18.1387C19.7604 18.0937 19.9114 18.0937 19.9114 18.0937C19.9634 18.0997 19.9514 18.1447 19.9404 18.1667C19.8834 18.1897 19.7604 18.2237 19.6934 18.2747C19.5414 18.4147 19.4174 18.6277 19.4174 18.6277C19.7164 18.5947 19.9014 18.6727 20.1364 18.6507C20.2724 18.6457 20.3734 18.6567 20.5134 18.5607C20.5134 18.5607 20.6534 18.4647 20.7784 18.4207C20.8964 18.3707 21.0084 18.4037 21.1084 18.4827C21.1774 18.5667 21.2274 18.5667 21.1084 18.6787C21.0644 18.7237 21.0084 18.7747 20.9284 18.8487C20.7954 18.9717 20.6154 19.1397 20.4284 19.2807C20.2636 19.4028 20.0871 19.5083 19.9014 19.5957C19.5634 19.8257 19.6414 19.7697 19.3784 19.9897C19.3484 20.0117 19.2544 20.0677 19.2154 20.0957C19.1084 20.1577 19.0804 20.1017 19.0184 19.9777C19.0184 19.9777 18.9904 19.9327 18.9384 19.8377C18.8884 19.7307 18.8484 19.6077 18.8664 19.6077C18.8044 19.6007 18.5354 19.2637 18.5354 19.1977C18.4724 19.1847 18.2314 18.9377 18.2254 18.8877L18.0114 18.7077C17.7584 18.7517 17.7014 18.5947 17.0504 18.0997C16.9704 18.0937 16.8534 18.0497 16.6904 17.9257C16.3924 17.6727 15.6834 17.1107 15.5664 17.0427C15.4364 16.9757 15.2854 16.9087 15.1834 16.8287C15.0374 16.8067 14.9654 16.7787 14.8854 16.7617C14.8054 16.7397 14.7454 16.7047 14.5594 16.6827C14.2564 16.6377 13.9414 16.5027 13.6484 16.3457C13.5084 16.2727 13.3844 16.2387 13.2664 16.1767C12.9964 16.0527 12.7604 15.9407 12.5804 15.8967C12.3813 15.8488 12.19 15.7727 12.0124 15.6707C11.9514 15.6367 11.9174 15.6107 11.8784 15.5977C11.7884 15.5757 11.7254 15.6037 11.6864 15.6197C11.4564 15.7277 11.2484 15.8227 11.0504 15.9297C10.8704 16.0197 10.7024 16.1157 10.5224 16.2157C10.3476 16.3069 10.1695 16.3916 9.98843 16.4697C9.98843 16.4697 9.45443 16.7227 9.15643 16.8177C8.89643 17.0147 8.36943 17.3637 8.04943 17.5327C7.89143 17.6057 7.58243 17.7847 7.44143 17.8247C7.36143 17.8857 7.07043 18.0827 6.84543 18.2457C6.66543 18.3697 6.53543 18.4767 6.53543 18.4767C6.42943 18.5607 6.43443 18.6067 6.25543 18.5217C6.21039 18.5513 6.167 18.5833 6.12543 18.6177C5.98543 18.7127 5.97943 18.6907 5.92343 18.6847C5.82243 18.7647 5.81043 18.7247 5.72643 18.8147C5.66543 18.8987 5.72643 18.8757 5.60843 18.9207C5.58043 18.9267 5.56843 18.9607 5.55143 18.9767C5.45743 19.0497 5.45143 19.2697 5.22643 19.2807C5.09143 19.3707 5.11943 19.4837 5.02943 19.4717C5.02943 19.5737 4.84943 19.7017 4.81543 19.7017C4.52343 19.7977 4.51143 19.5837 4.16943 19.7367C4.12443 19.7527 4.05643 19.8087 3.97243 19.8207C3.82043 19.8427 3.64043 19.8147 3.52843 19.7187C3.40249 19.6011 3.29285 19.4673 3.20243 19.3207C3.15143 19.1907 3.18543 19.1127 3.36543 18.9887C3.43843 18.9437 3.44943 18.9097 3.57343 18.9047C3.63343 18.8807 3.61843 18.9147 3.72343 18.8807C3.78743 18.8647 3.78743 18.8757 3.91643 18.8757C3.94443 18.8587 3.98343 18.8537 4.04043 18.8307C4.14043 18.7967 4.23643 18.7687 4.23643 18.7687C4.23643 18.7687 4.26443 18.7457 4.36043 18.7587C4.43843 18.7237 4.52943 18.6787 4.57443 18.6617C4.56243 18.5377 4.57943 18.5377 4.63443 18.4877C4.71443 18.4257 4.72443 18.4377 4.78243 18.4777C4.80443 18.4707 4.82143 18.4647 4.80943 18.4427C4.79943 18.3697 4.74843 18.3357 4.76443 18.1957C4.74243 18.1387 4.70343 18.0667 4.71443 18.0217C4.72443 17.9767 4.74243 17.9527 4.77043 17.9427C4.79943 17.9307 4.81543 17.9487 4.82743 17.9647C4.85543 17.9987 4.87743 18.0997 4.87743 18.0997C4.88343 18.2177 4.91743 18.3597 5.02943 18.2797C5.09643 18.2177 5.11343 18.0377 5.24343 18.0767L5.33943 18.1617C5.42343 18.0887 5.42343 18.0887 5.47943 18.0547C5.47943 18.0547 5.39943 17.9817 5.46743 17.9197C5.51243 17.8807 5.57543 17.8527 5.67543 17.7447C5.95143 17.4527 6.09743 17.3247 6.38943 17.0877C6.90803 16.6951 7.48017 16.3789 8.08843 16.1487C8.23443 15.9747 8.36843 15.8627 8.67343 15.8447C9.05043 15.2387 9.75843 14.7087 9.92143 14.6247C10.0554 14.3947 10.1114 14.4167 10.2864 14.3777C10.4214 14.2707 10.4614 14.2707 10.5164 14.1637C10.5794 13.9337 10.4044 13.3037 10.8994 13.2867C11.0114 13.1407 10.9774 13.1747 11.0954 13.0387C11.0366 12.8772 10.997 12.7094 10.9774 12.5387C10.9724 12.5227 10.7814 12.3817 10.8474 12.2067C10.7426 12.0729 10.6527 11.928 10.5794 11.7747C10.5579 11.774 10.5367 11.77 10.5164 11.7627C10.4944 11.7577 10.4614 11.7577 10.4264 11.7577C10.3484 11.9537 10.2634 11.9657 10.1234 12.0107C9.86343 12.5227 9.77343 12.7417 9.07743 13.1527C8.79743 13.4507 8.69543 13.7927 8.69543 13.7867C8.65299 13.8887 8.64873 14.0027 8.68343 14.1077C8.63843 14.2147 8.65643 14.2317 8.65643 14.2317C8.66643 14.2767 8.71243 14.3377 8.76243 14.3437C8.84143 14.3667 8.93143 14.3667 8.92043 14.4617C8.90943 14.5747 8.75743 14.5517 8.68343 14.5347C8.40843 14.4847 8.49843 14.3047 8.31843 14.3607C8.17743 14.4457 8.12243 14.7087 7.90243 14.6707C7.87443 14.6477 7.88543 14.5967 7.90843 14.5517C7.93643 14.4917 7.99243 14.4337 7.96443 14.4117C7.81843 14.4517 7.53143 14.5347 7.53143 14.5347C7.39643 14.5747 7.25043 14.4957 7.38443 14.4107C7.44743 14.3887 7.53743 14.3607 7.64943 14.2927C7.64943 14.2927 7.71143 14.2207 7.59243 14.2537C7.45771 14.2941 7.31668 14.3094 7.17643 14.2987C7.17643 14.2987 6.91943 14.2597 6.88443 14.2427C6.85643 14.2207 6.82343 14.1357 6.90143 14.1427C7.09096 14.1397 7.27966 14.117 7.46443 14.0747C7.55943 14.0397 7.74443 13.9347 7.84643 13.8887C7.84643 13.8887 7.95943 13.7317 8.02643 13.6987C8.13343 13.5847 8.21643 13.5187 8.30643 13.3997C8.39643 13.2197 8.49843 12.9397 8.80643 12.4937C8.96255 12.2608 9.14179 12.0444 9.34143 11.8477C9.34143 11.8477 9.40343 11.5097 9.68443 11.2747C9.74743 11.1347 9.84143 10.9647 9.94343 10.8127C9.98201 10.7588 10.0174 10.7027 10.0494 10.6447C10.1394 10.5147 10.2354 10.2677 10.5674 10.2347C10.5674 10.2347 10.7144 10.1327 10.7644 10.0597C10.8484 9.98666 10.8384 9.87366 10.9044 9.80066C10.7984 9.69466 10.5394 9.49166 10.5224 9.22766C10.5115 9.09979 10.5297 8.97111 10.5756 8.85126C10.6214 8.73141 10.6939 8.62352 10.7874 8.53566C10.9834 8.35066 11.1854 8.26066 11.4334 8.27766C11.7424 8.33266 11.7994 8.43466 11.8884 8.53566C11.9784 8.63666 12.0184 8.57566 12.0514 8.68166C12.3104 8.75466 12.2994 8.72666 12.2884 8.91766C12.3334 8.97466 12.3944 9.02566 12.3884 9.13166C12.4734 8.95666 12.4964 8.92366 12.7324 8.73266C12.7944 8.57566 12.8324 8.41766 12.8824 8.25466C12.9344 8.10866 12.9964 7.95666 13.0364 7.84466C12.9964 7.51866 13.0964 7.46766 13.2324 7.18066C13.2104 7.14166 13.2164 7.13066 13.2264 7.06866C13.2834 6.87666 13.3624 6.63566 13.4124 6.47266C13.4124 6.47266 13.4294 6.40966 13.4974 6.40966C13.5574 6.20766 13.6544 5.83066 13.6764 5.74666C13.7384 5.53866 13.7054 5.45966 13.6664 5.33666C13.6544 5.29666 13.6604 5.24666 13.6364 5.20066C13.5675 5.06666 13.5041 4.92988 13.4464 4.79066C13.4184 4.71766 13.3664 4.43666 13.3664 4.43666C13.3624 4.37466 13.3624 4.34666 13.3624 4.34666Z" fill="#111111"/>
</g>
</svg>
